<svg xmlns="http://www.w3.org/2000/svg" viewBox="0 0 100 100" width="100" height="100">
  <!-- Background Circle -->
  <circle cx="50" cy="50" r="48" fill="#f56565" stroke="#e53e3e" stroke-width="2"/>
  
  <!-- CD Icon -->
  <circle cx="50" cy="50" r="25" fill="none" stroke="#ffffff" stroke-width="3"/>
  <circle cx="50" cy="50" r="8" fill="#ffffff"/>
  <circle cx="50" cy="50" r="18" fill="none" stroke="#ffffff" stroke-width="1" opacity="0.5"/>
  
  <!-- Music Note -->
  <path d="M 58 35 L 58 55 Q 58 58 55 58 Q 52 58 52 55 Q 52 52 55 52 Q 56 52 58 53 L 58 40 L 65 38 L 65 50 Q 65 53 62 53 Q 59 53 59 50 Q 59 47 62 47 Q 63 47 65 48 L 65 35 Z" fill="#ffffff"/>
  
  <!-- Package Badge -->
  <circle cx="75" cy="25" r="14" fill="#48bb78" stroke="#ffffff" stroke-width="2"/>
  <text x="75" y="30" font-size="16" text-anchor="middle">📦</text>
</svg>
